# xmcd
#
# Track frame offsets:
#	150
#	12887
#	24887
#	35947
#	42755
#	51645
#	65465
#	75107
#	86635
#	98060
#	109245
#
# Disc length: 1618 seconds
# Revision: 2
# Processed by: cddbd v1.5.2PL0 Copyright (c) Steve Scherf et al.
# Submitted via: dBpowerAMP V12.0
#
DISCID=8206500b
DTITLE=Johnny Winter - Rock and Pop Legends
DYEAR=1991
DGENRE=Blues
TTITLE0=Bad news
TTITLE1=Leavin' blues
TTITLE2=Take a chance on my love
TTITLE3=Easy lovin' Girl
TTITLE4=I had to cry
TTITLE5=Birds can't row boats
TTITLE6=Out of sight
TTITLE7=Coming up fast part 1
TTITLE8=Coming up fast part 2
TTITLE9=Parchment farm
TTITLE10=Please come home for Christmas
EXTD=
EXTT0=
EXTT1=
EXTT2=
EXTT3=
EXTT4=
EXTT5=
EXTT6=
EXTT7=
EXTT8=
EXTT9=
EXTT10=
PLAYORDER=
